<?xml version="1.0" standalone="no"?>
<!DOCTYPE svg PUBLIC "-//W3C//DTD SVG 20010904//EN"
 "http://www.w3.org/TR/2001/REC-SVG-20010904/DTD/svg10.dtd">
<svg version="1.0" xmlns="http://www.w3.org/2000/svg"
 width="150.000000pt" height="163.000000pt" viewBox="0 0 150.000000 163.000000"
 preserveAspectRatio="xMidYMid meet">

<g transform="translate(0.000000,163.000000) scale(0.100000,-0.100000)"
fill="#000000" stroke="none">
<path d="M263 1386 c-121 -30 -252 -127 -240 -178 10 -39 145 -236 167 -243
10 -3 28 -1 39 4 19 10 207 340 218 382 9 34 -15 49 -76 48 -31 0 -79 -6 -108
-13z"/>
<path d="M1123 1388 c-12 -6 -27 -23 -33 -39 -11 -26 -6 -40 67 -181 66 -127
85 -156 113 -170 52 -27 83 -8 152 92 67 98 73 131 32 179 -64 76 -267 149
-331 119z"/>
<path d="M447 1062 c-21 -23 -22 -76 -1 -96 8 -9 31 -16 49 -16 58 0 86 69 45
110 -25 25 -72 26 -93 2z"/>
<path d="M962 1057 c-30 -32 -28 -71 4 -96 15 -12 35 -21 46 -21 25 0 68 44
68 70 0 28 -43 70 -73 70 -13 0 -33 -10 -45 -23z"/>
<path d="M1163 845 c-13 -9 -23 -27 -23 -41 0 -67 -57 -148 -131 -189 -61 -33
-150 -40 -206 -16 -31 13 -34 12 -75 -23 -106 -91 -258 -82 -350 20 -78 86
-75 84 -123 84 -77 0 -124 -36 -139 -106 -8 -35 6 -79 35 -110 16 -17 18 -26
9 -48 -38 -100 34 -195 139 -183 36 4 51 12 73 39 16 18 43 50 61 71 l32 38
295 54 c315 58 345 59 385 15 9 -10 37 -27 61 -36 41 -16 47 -16 89 0 83 32
111 125 60 201 -23 33 -24 40 -14 69 28 77 -30 164 -113 173 -30 3 -50 -1 -65
-12z"/>
<path d="M657 833 c-16 -15 -6 -70 16 -91 34 -32 125 -31 154 1 25 27 33 59
21 81 -7 13 -26 16 -97 16 -48 0 -91 -3 -94 -7z"/>
<path d="M916 721 c-4 -5 -2 -12 3 -15 5 -4 12 -2 15 3 4 5 2 12 -3 15 -5 4
-12 2 -15 -3z"/>
<path d="M980 690 c0 -5 5 -10 10 -10 6 0 10 5 10 10 0 6 -4 10 -10 10 -5 0
-10 -4 -10 -10z"/>
<path d="M585 670 c-3 -5 1 -10 10 -10 9 0 13 5 10 10 -3 6 -8 10 -10 10 -2 0
-7 -4 -10 -10z"/>
<path d="M896 651 c-4 -5 -2 -12 3 -15 5 -4 12 -2 15 3 4 5 2 12 -3 15 -5 4
-12 2 -15 -3z"/>
<path d="M640 620 c0 -5 5 -10 10 -10 6 0 10 5 10 10 0 6 -4 10 -10 10 -5 0
-10 -4 -10 -10z"/>
<path d="M540 610 c0 -5 5 -10 10 -10 6 0 10 5 10 10 0 6 -4 10 -10 10 -5 0
-10 -4 -10 -10z"/>
</g>
</svg>
