<?xml version="1.0" standalone="no"?>
<!DOCTYPE svg PUBLIC "-//W3C//DTD SVG 20010904//EN"
 "http://www.w3.org/TR/2001/REC-SVG-20010904/DTD/svg10.dtd">
<svg version="1.0" xmlns="http://www.w3.org/2000/svg"
 width="64.000000pt" height="64.000000pt" viewBox="0 0 64.000000 64.000000"
 preserveAspectRatio="xMidYMid meet">

<g transform="translate(0.000000,64.000000) scale(0.100000,-0.100000)"
fill="#000000" stroke="none">
<path d="M75 551 c-22 -10 -49 -28 -59 -40 -19 -21 -19 -21 18 -76 20 -30 43
-55 50 -55 17 0 110 166 101 180 -10 16 -66 11 -110 -9z"/>
<path d="M473 554 c-7 -18 42 -127 68 -150 24 -21 49 -11 77 31 29 46 28 70
-5 93 -58 40 -129 53 -140 26z"/>
<path d="M187 423 c-13 -12 -7 -41 10 -47 21 -9 46 16 37 37 -6 17 -35 23 -47
10z"/>
<path d="M414 415 c-8 -21 2 -45 19 -45 8 0 20 7 27 15 10 12 10 18 0 30 -7 8
-19 15 -27 15 -7 0 -16 -7 -19 -15z"/>
<path d="M280 306 c0 -19 7 -27 27 -32 32 -8 58 6 58 32 0 15 -9 20 -42 22
-40 3 -43 1 -43 -22z"/>
<path d="M494 313 c-22 -72 -56 -98 -118 -96 -23 1 -60 -7 -84 -19 -37 -18
-49 -19 -81 -9 -21 6 -50 24 -64 41 -32 35 -59 38 -88 9 -16 -16 -19 -28 -14
-47 3 -15 9 -43 12 -62 12 -75 63 -92 113 -37 29 32 38 35 165 57 120 21 136
21 157 8 41 -26 56 -27 82 -7 26 21 35 62 16 74 -5 3 -10 23 -10 44 0 20 -5
42 -12 49 -19 19 -68 15 -74 -5z"/>
</g>
</svg>
