<?xml version="1.0" standalone="no"?>
<!DOCTYPE svg PUBLIC "-//W3C//DTD SVG 20010904//EN"
 "http://www.w3.org/TR/2001/REC-SVG-20010904/DTD/svg10.dtd">
<svg version="1.0" xmlns="http://www.w3.org/2000/svg"
 width="192.000000pt" height="192.000000pt" viewBox="0 0 192.000000 192.000000"
 preserveAspectRatio="xMidYMid meet">

<g transform="translate(0.000000,192.000000) scale(0.100000,-0.100000)"
fill="#000000" stroke="none">
<path d="M360 1709 c-85 -16 -185 -59 -252 -109 -71 -52 -103 -98 -94 -135 10
-39 186 -295 211 -307 45 -20 75 4 132 105 111 197 213 393 213 408 0 9 -8 23
-18 32 -21 19 -112 22 -192 6z"/>
<path d="M1417 1681 c-15 -18 -27 -42 -27 -53 0 -20 118 -256 183 -365 38 -63
79 -89 130 -79 41 8 73 43 156 170 78 121 69 172 -49 251 -90 61 -187 96 -286
102 l-80 6 -27 -32z"/>
<path d="M572 1285 c-64 -54 -29 -155 53 -155 108 0 116 154 9 176 -24 4 -37
0 -62 -21z"/>
<path d="M1235 1275 c-56 -55 -16 -145 63 -145 51 0 86 35 86 87 0 73 -96 111
-149 58z"/>
<path d="M1508 1009 c-28 -11 -32 -18 -43 -83 -16 -95 -86 -186 -178 -233 -72
-36 -181 -43 -254 -15 l-51 20 -32 -33 c-56 -58 -125 -88 -211 -93 -128 -7
-223 37 -296 139 -40 56 -81 79 -138 79 -75 0 -140 -50 -165 -126 -17 -50 -7
-100 31 -151 27 -39 30 -47 20 -75 -53 -153 86 -285 232 -220 34 15 54 34 80
74 47 75 84 103 153 117 173 35 674 121 707 121 40 0 104 -28 127 -55 38 -46
138 -62 197 -32 97 51 123 181 53 268 -30 37 -30 40 -15 68 29 57 10 146 -42
193 -46 42 -119 57 -175 37z"/>
<path d="M831 976 c-16 -19 -4 -79 21 -106 51 -55 165 -55 216 0 25 27 35 75
22 101 -10 17 -23 19 -129 19 -90 0 -121 -3 -130 -14z"/>
<path d="M1172 828 c6 -18 28 -21 28 -4 0 9 -7 16 -16 16 -9 0 -14 -5 -12 -12z"/>
<path d="M1262 798 c6 -18 28 -21 28 -4 0 9 -7 16 -16 16 -9 0 -14 -5 -12 -12z"/>
<path d="M742 769 c2 -6 8 -10 13 -10 5 0 11 4 13 10 2 6 -4 11 -13 11 -9 0
-15 -5 -13 -11z"/>
<path d="M1150 746 c0 -9 7 -16 16 -16 17 0 14 22 -4 28 -7 2 -12 -3 -12 -12z"/>
<path d="M810 705 c0 -8 7 -15 15 -15 8 0 15 7 15 15 0 8 -7 15 -15 15 -8 0
-15 -7 -15 -15z"/>
<path d="M682 698 c6 -18 28 -21 28 -4 0 9 -7 16 -16 16 -9 0 -14 -5 -12 -12z"/>
</g>
</svg>
